<svg xmlns="http://www.w3.org/2000/svg" shape-rendering="geometricPrecision" text-rendering="geometricPrecision" image-rendering="optimizeQuality" fill-rule="evenodd" clip-rule="evenodd" viewBox="0 0 512 512"><path fill-rule="nonzero" d="M256.003 0c70.681 0 134.688 28.657 181.01 74.986C483.343 121.309 512 185.31 512 255.997s-28.657 134.694-74.987 181.016C390.691 483.343 326.69 512 256.003 512c-70.688 0-134.694-28.657-181.017-74.987C28.657 390.691 0 326.684 0 255.997S28.657 121.309 74.986 74.986C121.309 28.657 185.315 0 256.003 0zm92.914 348.69v-24.322h-31.111V187.507h31.111v-24.198H163.083v24.198h31.11v136.861h-31.11v24.322h185.834zm-59.029-24.322h-67.776V187.507h67.776v136.861zM420.306 91.693c-42.042-42.048-100.142-68.055-164.303-68.055-64.168 0-122.268 26.007-164.31 68.055-42.048 42.042-68.055 100.136-68.055 164.304 0 64.167 26.007 122.267 68.055 164.309 42.042 42.048 100.142 68.056 164.31 68.056 64.167 0 122.261-26.008 164.303-68.056 42.048-42.042 68.056-100.142 68.056-164.309 0-64.168-26.008-122.262-68.056-164.304z"/></svg>