<svg xmlns="http://www.w3.org/2000/svg" shape-rendering="geometricPrecision" text-rendering="geometricPrecision" image-rendering="optimizeQuality" fill-rule="evenodd" clip-rule="evenodd" viewBox="0 0 512 512"><path fill-rule="nonzero" d="M255.997 0c70.687 0 134.694 28.657 181.016 74.986C483.343 121.309 512 185.31 512 255.997s-28.657 134.694-74.987 181.016C390.691 483.343 326.684 512 255.997 512s-134.688-28.657-181.011-74.987C28.657 390.691 0 326.684 0 255.997S28.657 121.309 74.986 74.986C121.309 28.657 185.31 0 255.997 0zm19.97 348.69h30.657l63.566-185.381h-30.657l-43.697 137.838c-.411 1.434-.858 3.191-1.394 5.192a208.498 208.498 0 00-1.429 6.377c-.452 2.167-.857 4.376-1.268 6.585-.369 2.167-.655 4.209-.815 6.049h-.739c-.161-1.756-.446-3.763-.816-6.007-.41-2.21-.857-4.46-1.387-6.705a234.94 234.94 0 00-1.637-6.543 90.978 90.978 0 00-1.554-5.437l-42.965-137.349h-29.836l63.971 185.381zm-90.3-161.183h16.272v-24.198h-60.13v24.198h15.939v136.861h-15.939v24.322h60.13v-24.322h-16.272V187.507zm234.639-95.814c-42.042-42.048-100.142-68.055-164.309-68.055-64.168 0-122.262 26.007-164.304 68.055-42.048 42.042-68.055 100.136-68.055 164.304 0 64.167 26.007 122.267 68.055 164.309 42.042 42.048 100.136 68.056 164.304 68.056 64.167 0 122.267-26.008 164.309-68.056 42.048-42.042 68.056-100.142 68.056-164.309 0-64.168-26.008-122.262-68.056-164.304z"/></svg>