<svg xmlns="http://www.w3.org/2000/svg" shape-rendering="geometricPrecision" text-rendering="geometricPrecision" image-rendering="optimizeQuality" fill-rule="evenodd" clip-rule="evenodd" viewBox="0 0 512 512"><path fill-rule="nonzero" d="M255.997 0c70.687 0 134.694 28.657 181.017 74.985C483.343 121.309 512 185.31 512 255.997s-28.657 134.694-74.986 181.017C390.691 483.343 326.684 512 255.997 512s-134.688-28.657-181.012-74.986C28.657 390.691 0 326.684 0 255.997S28.657 121.309 74.985 74.985C121.309 28.657 185.31 0 255.997 0zm-48.026 324.368v24.322h96.057v-24.322h-33.759V187.507h33.759v-24.198h-96.057v24.198h33.557v136.861h-33.557zM420.306 91.693c-42.042-42.048-100.142-68.056-164.309-68.056-64.168 0-122.262 26.008-164.304 68.056-42.048 42.042-68.056 100.136-68.056 164.304 0 64.167 26.008 122.267 68.056 164.309 42.042 42.048 100.136 68.056 164.304 68.056 64.167 0 122.267-26.008 164.309-68.056 42.048-42.042 68.056-100.142 68.056-164.309 0-64.168-26.008-122.262-68.056-164.304z"/></svg>