<svg xmlns="http://www.w3.org/2000/svg" xmlns:xlink="http://www.w3.org/1999/xlink" width="500" zoomAndPan="magnify" viewBox="0 0 375 374.999991" height="500" preserveAspectRatio="xMidYMid meet" version="1.0"><defs><g/></defs><rect x="-37.5" width="450" fill="#ffffff" y="-37.499999" height="449.999989" fill-opacity="1"/><rect x="-37.5" width="450" fill="#ffffff" y="-37.499999" height="449.999989" fill-opacity="1"/><g fill="#5e17eb" fill-opacity="0.4"><g transform="translate(25.930901, 237.876692)"><g><path d="M 33.78125 -37.859375 L 11.34375 -6.65625 C 12.863281 -6.582031 14.539062 -6.503906 16.375 -6.421875 C 18.21875 -6.335938 20.238281 -6.296875 22.4375 -6.296875 C 24.675781 -6.296875 26.445312 -6.425781 27.75 -6.6875 C 29.050781 -6.945312 29.976562 -7.207031 30.53125 -7.46875 C 31.09375 -7.726562 31.375 -7.859375 31.375 -7.859375 C 31.375 -7.859375 31.484375 -7.65625 31.703125 -7.25 C 31.929688 -6.851562 32.046875 -6.195312 32.046875 -5.28125 C 32.046875 -3.757812 31.503906 -2.5 30.421875 -1.5 C 29.335938 -0.5 27.617188 0 25.265625 0 C 23.378906 0 21.484375 -0.164062 19.578125 -0.5 C 17.679688 -0.84375 15.941406 -1.234375 14.359375 -1.671875 C 12.785156 -2.117188 11.519531 -2.507812 10.5625 -2.84375 C 9.601562 -3.1875 9.125 -3.359375 9.125 -3.359375 C 9.125 -3.359375 8.875 -3.078125 8.375 -2.515625 C 7.875 -1.960938 7.125 -1.40625 6.125 -0.84375 C 5.125 -0.28125 3.882812 0 2.40625 0 C 0.882812 0 -0.191406 -0.367188 -0.828125 -1.109375 C -1.472656 -1.847656 -1.796875 -2.660156 -1.796875 -3.546875 C -1.796875 -4.460938 -1.460938 -5.28125 -0.796875 -6 C -0.140625 -6.71875 0.863281 -7.097656 2.21875 -7.140625 L 24.84375 -38.34375 C 23.363281 -38.414062 21.710938 -38.492188 19.890625 -38.578125 C 18.066406 -38.660156 16.054688 -38.703125 13.859375 -38.703125 C 11.660156 -38.703125 9.898438 -38.570312 8.578125 -38.3125 C 7.253906 -38.050781 6.3125 -37.789062 5.75 -37.53125 C 5.195312 -37.269531 4.921875 -37.140625 4.921875 -37.140625 C 4.921875 -37.140625 4.8125 -37.335938 4.59375 -37.734375 C 4.375 -38.140625 4.265625 -38.800781 4.265625 -39.71875 C 4.265625 -41.238281 4.8125 -42.5 5.90625 -43.5 C 7.007812 -44.5 8.722656 -45 11.046875 -45 C 12.921875 -45 14.804688 -44.828125 16.703125 -44.484375 C 18.609375 -44.148438 20.347656 -43.757812 21.921875 -43.3125 C 23.503906 -42.875 24.773438 -42.484375 25.734375 -42.140625 C 26.703125 -41.804688 27.1875 -41.640625 27.1875 -41.640625 C 27.1875 -41.640625 27.4375 -41.914062 27.9375 -42.46875 C 28.4375 -43.03125 29.1875 -43.59375 30.1875 -44.15625 C 31.1875 -44.71875 32.425781 -45 33.90625 -45 C 35.425781 -45 36.503906 -44.628906 37.140625 -43.890625 C 37.773438 -43.148438 38.09375 -42.335938 38.09375 -41.453125 C 38.09375 -40.535156 37.753906 -39.707031 37.078125 -38.96875 C 36.398438 -38.226562 35.300781 -37.859375 33.78125 -37.859375 Z M 33.78125 -37.859375 "/></g></g></g><g fill="#5e17eb" fill-opacity="0.4"><g transform="translate(61.024069, 237.876692)"><g><path d="M 11.765625 0 C 9.160156 0 6.828125 -0.519531 4.765625 -1.5625 C 2.710938 -2.601562 1.109375 -4.09375 -0.046875 -6.03125 C -1.210938 -7.96875 -1.796875 -10.273438 -1.796875 -12.953125 C -1.796875 -15.597656 -1.335938 -17.976562 -0.421875 -20.09375 C 0.492188 -22.21875 1.722656 -24.007812 3.265625 -25.46875 C 4.804688 -26.925781 6.523438 -28.046875 8.421875 -28.828125 C 10.328125 -29.609375 12.28125 -30 14.28125 -30 C 16.320312 -30 17.972656 -29.6875 19.234375 -29.0625 C 20.492188 -28.445312 21.410156 -27.664062 21.984375 -26.71875 C 22.566406 -25.78125 22.859375 -24.796875 22.859375 -23.765625 C 22.859375 -21.046875 21.367188 -18.773438 18.390625 -16.953125 C 15.410156 -15.128906 11.28125 -13.71875 6 -12.71875 C 6.195312 -10.476562 7.035156 -8.585938 8.515625 -7.046875 C 9.992188 -5.503906 12.015625 -4.734375 14.578125 -4.734375 C 16.734375 -4.734375 18.582031 -5.035156 20.125 -5.640625 C 21.664062 -6.242188 22.945312 -6.984375 23.96875 -7.859375 C 24.988281 -8.742188 25.757812 -9.601562 26.28125 -10.4375 C 27.15625 -10.4375 27.472656 -9.914062 27.234375 -8.875 C 27.117188 -8.238281 26.671875 -7.421875 25.890625 -6.421875 C 25.109375 -5.421875 24.054688 -4.429688 22.734375 -3.453125 C 21.421875 -2.472656 19.832031 -1.648438 17.96875 -0.984375 C 16.113281 -0.328125 14.046875 0 11.765625 0 Z M 14.34375 -27 C 13.21875 -27 12.054688 -26.566406 10.859375 -25.703125 C 9.660156 -24.847656 8.617188 -23.566406 7.734375 -21.859375 C 6.859375 -20.160156 6.300781 -18.054688 6.0625 -15.546875 C 9.738281 -16.421875 12.382812 -17.707031 14 -19.40625 C 15.625 -21.101562 16.4375 -22.9375 16.4375 -24.90625 C 16.4375 -25.539062 16.242188 -26.046875 15.859375 -26.421875 C 15.484375 -26.804688 14.976562 -27 14.34375 -27 Z M 14.34375 -27 "/></g></g></g><g fill="#5e17eb" fill-opacity="0.4"><g transform="translate(88.078805, 237.876692)"><g><path d="M 17.765625 -14.34375 L 18.90625 -20.9375 C 19.144531 -22.375 19.132812 -23.363281 18.875 -23.90625 C 18.613281 -24.445312 18.140625 -24.71875 17.453125 -24.71875 C 16.492188 -24.71875 15.460938 -24.207031 14.359375 -23.1875 C 13.265625 -22.164062 12.164062 -20.765625 11.0625 -18.984375 C 9.96875 -17.203125 8.988281 -15.171875 8.125 -12.890625 C 7.269531 -10.617188 6.601562 -8.222656 6.125 -5.703125 C 5.800781 -3.816406 5.707031 -2.484375 5.84375 -1.703125 C 5.988281 -0.929688 6.0625 -0.546875 6.0625 -0.546875 C 6.0625 -0.546875 5.820312 -0.453125 5.34375 -0.265625 C 4.863281 -0.0859375 4.0625 0 2.9375 0 C 0.613281 0 -0.796875 -0.46875 -1.296875 -1.40625 C -1.796875 -2.34375 -1.863281 -3.851562 -1.5 -5.9375 L 1.6875 -24.296875 C 2 -26.179688 2.082031 -27.507812 1.9375 -28.28125 C 1.800781 -29.0625 1.734375 -29.453125 1.734375 -29.453125 C 1.734375 -29.453125 1.972656 -29.539062 2.453125 -29.71875 C 2.941406 -29.90625 3.742188 -30 4.859375 -30 C 7.179688 -30 8.59375 -29.535156 9.09375 -28.609375 C 9.59375 -27.691406 9.660156 -26.175781 9.296875 -24.0625 L 8.8125 -21.296875 C 9.613281 -22.617188 10.625 -23.945312 11.84375 -25.28125 C 13.070312 -26.625 14.4375 -27.742188 15.9375 -28.640625 C 17.4375 -29.546875 18.984375 -30 20.578125 -30 C 22.460938 -30 23.960938 -29.4375 25.078125 -28.3125 C 26.203125 -27.195312 26.765625 -25.695312 26.765625 -23.8125 C 26.765625 -23.175781 26.710938 -22.4375 26.609375 -21.59375 C 26.503906 -20.757812 26.375 -19.878906 26.21875 -18.953125 L 24.78125 -10.5 C 24.5 -9.019531 24.523438 -7.769531 24.859375 -6.75 C 25.203125 -5.726562 25.992188 -5.21875 27.234375 -5.21875 C 28.515625 -5.21875 29.695312 -5.695312 30.78125 -6.65625 C 31.863281 -7.613281 32.785156 -8.875 33.546875 -10.4375 C 33.941406 -10.4375 34.25 -10.316406 34.46875 -10.078125 C 34.6875 -9.835938 34.757812 -9.4375 34.6875 -8.875 C 34.5625 -8.113281 34.207031 -7.234375 33.625 -6.234375 C 33.050781 -5.234375 32.28125 -4.253906 31.3125 -3.296875 C 30.351562 -2.335938 29.265625 -1.546875 28.046875 -0.921875 C 26.828125 -0.304688 25.519531 0 24.125 0 C 21.882812 0 20.113281 -0.6875 18.8125 -2.0625 C 17.507812 -3.445312 16.859375 -5.257812 16.859375 -7.5 C 16.859375 -8.300781 16.96875 -9.390625 17.1875 -10.765625 C 17.40625 -12.148438 17.597656 -13.34375 17.765625 -14.34375 Z M 17.765625 -14.34375 "/></g></g></g><g fill="#5e17eb" fill-opacity="0.4"><g transform="translate(122.212157, 237.876692)"><g><path d="M -0.65625 -13.203125 L 1.265625 -24.296875 C 1.578125 -26.222656 1.660156 -27.5625 1.515625 -28.3125 C 1.378906 -29.070312 1.3125 -29.453125 1.3125 -29.453125 C 1.3125 -29.453125 1.550781 -29.539062 2.03125 -29.71875 C 2.519531 -29.90625 3.320312 -30 4.4375 -30 C 6.757812 -30 8.171875 -29.535156 8.671875 -28.609375 C 9.171875 -27.691406 9.238281 -26.175781 8.875 -24.0625 L 6.546875 -10.5 C 6.265625 -8.695312 6.351562 -7.363281 6.8125 -6.5 C 7.269531 -5.644531 8.039062 -5.21875 9.125 -5.21875 C 10.164062 -5.21875 11.285156 -5.6875 12.484375 -6.625 C 13.679688 -7.570312 14.660156 -8.84375 15.421875 -10.4375 C 15.816406 -10.4375 16.125 -10.316406 16.34375 -10.078125 C 16.570312 -9.835938 16.644531 -9.4375 16.5625 -8.875 C 16.394531 -8.082031 16.019531 -7.1875 15.4375 -6.1875 C 14.863281 -5.1875 14.097656 -4.210938 13.140625 -3.265625 C 12.179688 -2.328125 11.082031 -1.546875 9.84375 -0.921875 C 8.601562 -0.304688 7.257812 0 5.8125 0 C 3.738281 0 2.050781 -0.648438 0.75 -1.953125 C -0.550781 -3.253906 -1.203125 -5.101562 -1.203125 -7.5 C -1.203125 -8.101562 -1.160156 -8.90625 -1.078125 -9.90625 C -0.992188 -10.90625 -0.851562 -12.003906 -0.65625 -13.203125 Z M 3.359375 -39 C 3.359375 -40.238281 3.773438 -41.265625 4.609375 -42.078125 C 5.453125 -42.898438 6.4375 -43.3125 7.5625 -43.3125 C 8.71875 -43.3125 9.625 -42.953125 10.28125 -42.234375 C 10.945312 -41.515625 11.28125 -40.617188 11.28125 -39.546875 C 11.28125 -38.503906 10.890625 -37.550781 10.109375 -36.6875 C 9.328125 -35.832031 8.273438 -35.40625 6.953125 -35.40625 C 5.878906 -35.40625 5.007812 -35.742188 4.34375 -36.421875 C 3.6875 -37.097656 3.359375 -37.957031 3.359375 -39 Z M 3.359375 -39 "/></g></g></g><g fill="#5e17eb" fill-opacity="0.4"><g transform="translate(138.229032, 237.876692)"><g><path d="M -0.359375 -30 L 2.453125 -30 L 3.0625 -33.234375 C 3.414062 -35.117188 3.515625 -36.453125 3.359375 -37.234375 C 3.203125 -38.015625 3.125 -38.40625 3.125 -38.40625 C 3.125 -38.40625 3.363281 -38.492188 3.84375 -38.671875 C 4.320312 -38.847656 5.117188 -38.9375 6.234375 -38.9375 C 8.554688 -38.9375 9.976562 -38.476562 10.5 -37.5625 C 11.019531 -36.644531 11.082031 -35.125 10.6875 -33 L 10.140625 -30 L 16.078125 -30 C 16.078125 -30 16.144531 -29.890625 16.28125 -29.671875 C 16.425781 -29.453125 16.5 -29.140625 16.5 -28.734375 C 16.5 -28.210938 16.328125 -27.789062 15.984375 -27.46875 C 15.648438 -27.15625 15.140625 -27 14.453125 -27 L 9.59375 -27 L 6.71875 -10.5 C 6.4375 -8.863281 6.585938 -7.570312 7.171875 -6.625 C 7.753906 -5.6875 8.742188 -5.21875 10.140625 -5.21875 C 11.859375 -5.21875 13.328125 -5.773438 14.546875 -6.890625 C 15.765625 -8.015625 16.695312 -9.195312 17.34375 -10.4375 C 17.738281 -10.4375 18.046875 -10.304688 18.265625 -10.046875 C 18.484375 -9.785156 18.535156 -9.394531 18.421875 -8.875 C 18.140625 -7.675781 17.445312 -6.382812 16.34375 -5 C 15.25 -3.625 13.890625 -2.445312 12.265625 -1.46875 C 10.648438 -0.488281 8.878906 0 6.953125 0 C 4.753906 0 2.882812 -0.71875 1.34375 -2.15625 C -0.1875 -3.59375 -0.953125 -5.515625 -0.953125 -7.921875 C -0.953125 -8.597656 -0.910156 -9.457031 -0.828125 -10.5 C -0.753906 -11.539062 -0.578125 -12.820312 -0.296875 -14.34375 L 1.921875 -27 L -1.984375 -27 C -1.984375 -27 -2.050781 -27.109375 -2.1875 -27.328125 C -2.332031 -27.546875 -2.40625 -27.859375 -2.40625 -28.265625 C -2.40625 -28.785156 -2.222656 -29.203125 -1.859375 -29.515625 C -1.492188 -29.835938 -0.992188 -30 -0.359375 -30 Z M -0.359375 -30 "/></g></g></g><g fill="#5e17eb" fill-opacity="0.4"><g transform="translate(156.105549, 237.876692)"><g><path d="M 27.234375 -5.21875 C 29.710938 -5.21875 31.816406 -6.957031 33.546875 -10.4375 C 33.941406 -10.4375 34.25 -10.316406 34.46875 -10.078125 C 34.6875 -9.835938 34.757812 -9.4375 34.6875 -8.875 C 34.519531 -8.082031 34.144531 -7.1875 33.5625 -6.1875 C 32.988281 -5.1875 32.226562 -4.210938 31.28125 -3.265625 C 30.34375 -2.328125 29.265625 -1.546875 28.046875 -0.921875 C 26.828125 -0.304688 25.519531 0 24.125 0 C 21.882812 0 20.113281 -0.6875 18.8125 -2.0625 C 17.507812 -3.445312 16.859375 -5.257812 16.859375 -7.5 C 16.859375 -8.300781 16.945312 -9.269531 17.125 -10.40625 C 17.3125 -11.550781 17.523438 -12.863281 17.765625 -14.34375 L 18.90625 -20.9375 C 19.144531 -22.375 19.132812 -23.363281 18.875 -23.90625 C 18.613281 -24.445312 18.140625 -24.71875 17.453125 -24.71875 C 16.492188 -24.71875 15.453125 -24.207031 14.328125 -23.1875 C 13.210938 -22.164062 12.113281 -20.765625 11.03125 -18.984375 C 9.957031 -17.203125 8.976562 -15.171875 8.09375 -12.890625 C 7.21875 -10.617188 6.5625 -8.222656 6.125 -5.703125 C 5.800781 -3.816406 5.707031 -2.484375 5.84375 -1.703125 C 5.988281 -0.929688 6.0625 -0.546875 6.0625 -0.546875 C 6.0625 -0.546875 5.820312 -0.453125 5.34375 -0.265625 C 4.863281 -0.0859375 4.0625 0 2.9375 0 C 0.613281 0 -0.796875 -0.46875 -1.296875 -1.40625 C -1.796875 -2.34375 -1.863281 -3.851562 -1.5 -5.9375 L 5.15625 -44.09375 C 5.476562 -45.976562 5.566406 -47.3125 5.421875 -48.09375 C 5.285156 -48.875 5.21875 -49.265625 5.21875 -49.265625 C 5.21875 -49.265625 5.457031 -49.351562 5.9375 -49.53125 C 6.414062 -49.707031 7.21875 -49.796875 8.34375 -49.796875 C 10.65625 -49.796875 12.0625 -49.335938 12.5625 -48.421875 C 13.0625 -47.503906 13.132812 -45.984375 12.78125 -43.859375 L 8.8125 -21.296875 C 9.613281 -22.617188 10.613281 -23.945312 11.8125 -25.28125 C 13.019531 -26.625 14.375 -27.742188 15.875 -28.640625 C 17.375 -29.546875 18.941406 -30 20.578125 -30 C 22.460938 -30 23.960938 -29.4375 25.078125 -28.3125 C 26.203125 -27.195312 26.765625 -25.695312 26.765625 -23.8125 C 26.765625 -23.175781 26.710938 -22.4375 26.609375 -21.59375 C 26.503906 -20.757812 26.375 -19.878906 26.21875 -18.953125 L 24.78125 -10.5 C 24.5 -8.820312 24.554688 -7.519531 24.953125 -6.59375 C 25.359375 -5.675781 26.117188 -5.21875 27.234375 -5.21875 Z M 27.234375 -5.21875 "/></g></g></g><g fill="#5e17eb" fill-opacity="0.4"><g transform="translate(190.238901, 237.876692)"><g/></g></g><g fill="#5e17eb" fill-opacity="0.4"><g transform="translate(203.43633, 237.876692)"><g><path d="M 10.015625 -12.234375 L 14.640625 -38.640625 C 14.835938 -39.679688 14.9375 -40.347656 14.9375 -40.640625 C 14.9375 -40.941406 14.957031 -41.296875 15 -41.703125 L 14.34375 -41.703125 C 11.625 -41.703125 9.582031 -41.050781 8.21875 -39.75 C 6.863281 -38.445312 6.1875 -36.9375 6.1875 -35.21875 C 6.1875 -34.375 6.394531 -33.703125 6.8125 -33.203125 C 7.226562 -32.703125 7.816406 -32.453125 8.578125 -32.453125 C 8.898438 -32.453125 9.148438 -32.484375 9.328125 -32.546875 C 9.503906 -32.609375 9.59375 -32.640625 9.59375 -32.640625 C 9.59375 -32.640625 9.601562 -32.597656 9.625 -32.515625 C 9.644531 -32.441406 9.65625 -32.300781 9.65625 -32.09375 C 9.65625 -31.375 9.273438 -30.632812 8.515625 -29.875 C 7.753906 -29.113281 6.613281 -28.734375 5.09375 -28.734375 C 3.132812 -28.734375 1.59375 -29.285156 0.46875 -30.390625 C -0.644531 -31.492188 -1.203125 -32.941406 -1.203125 -34.734375 C -1.203125 -37.703125 0.101562 -40.15625 2.71875 -42.09375 C 5.34375 -44.03125 9.078125 -45 13.921875 -45 L 19.265625 -45 C 20.859375 -45 22.113281 -44.648438 23.03125 -43.953125 C 23.957031 -43.253906 24.660156 -42.023438 25.140625 -40.265625 L 34.265625 -8.09375 L 37.796875 -28.140625 C 38.554688 -32.296875 38.90625 -35.601562 38.84375 -38.0625 C 38.789062 -40.53125 38.613281 -42.300781 38.3125 -43.375 C 38.007812 -44.457031 37.859375 -45 37.859375 -45 C 37.859375 -45 38.015625 -45.085938 38.328125 -45.265625 C 38.648438 -45.453125 39.191406 -45.546875 39.953125 -45.546875 C 41.117188 -45.546875 41.953125 -45.265625 42.453125 -44.703125 C 42.953125 -44.140625 43.203125 -43.160156 43.203125 -41.765625 C 43.203125 -40.765625 43.09375 -39.515625 42.875 -38.015625 C 42.65625 -36.515625 42.363281 -34.765625 42 -32.765625 L 37.375 -6.359375 C 37.019531 -4.359375 36.859375 -2.914062 36.890625 -2.03125 C 36.929688 -1.15625 36.972656 -0.675781 37.015625 -0.59375 C 37.015625 -0.59375 36.691406 -0.492188 36.046875 -0.296875 C 35.410156 -0.0976562 34.316406 0 32.765625 0 C 31.117188 0 29.863281 -0.390625 29 -1.171875 C 28.144531 -1.953125 27.5 -3.140625 27.0625 -4.734375 L 17.8125 -37.3125 L 14.21875 -16.859375 C 13.5 -12.742188 13.164062 -9.441406 13.21875 -6.953125 C 13.28125 -4.472656 13.453125 -2.691406 13.734375 -1.609375 C 14.015625 -0.535156 14.15625 0 14.15625 0 C 14.15625 0 13.992188 0.0859375 13.671875 0.265625 C 13.359375 0.453125 12.820312 0.546875 12.0625 0.546875 C 10.9375 0.546875 10.113281 0.253906 9.59375 -0.328125 C 9.070312 -0.910156 8.8125 -1.878906 8.8125 -3.234375 C 8.8125 -4.273438 8.921875 -5.535156 9.140625 -7.015625 C 9.367188 -8.492188 9.660156 -10.234375 10.015625 -12.234375 Z M 10.015625 -12.234375 "/></g></g></g><g fill="#5e17eb" fill-opacity="0.4"><g transform="translate(250.227213, 237.876692)"><g><path d="M 14.8125 -30 C 18.332031 -30 21.050781 -28.945312 22.96875 -26.84375 C 24.894531 -24.75 25.859375 -21.984375 25.859375 -18.546875 C 25.859375 -17.898438 25.828125 -17.253906 25.765625 -16.609375 C 25.710938 -15.972656 25.644531 -15.359375 25.5625 -14.765625 C 27.082031 -15.003906 28.378906 -15.503906 29.453125 -16.265625 C 30.535156 -17.023438 31.363281 -17.742188 31.9375 -18.421875 C 32.519531 -19.097656 32.8125 -19.4375 32.8125 -19.4375 C 33.65625 -19.4375 34.019531 -18.9375 33.90625 -17.9375 C 33.78125 -17.257812 33.304688 -16.488281 32.484375 -15.625 C 31.671875 -14.769531 30.613281 -14 29.3125 -13.3125 C 28.007812 -12.632812 26.554688 -12.195312 24.953125 -12 C 23.953125 -8.4375 22.101562 -5.546875 19.40625 -3.328125 C 16.707031 -1.109375 13.316406 0 9.234375 0 C 6.078125 0 3.445312 -0.976562 1.34375 -2.9375 C -0.75 -4.894531 -1.796875 -7.734375 -1.796875 -11.453125 C -1.796875 -15.097656 -1.128906 -18.3125 0.203125 -21.09375 C 1.546875 -23.875 3.46875 -26.050781 5.96875 -27.625 C 8.46875 -29.207031 11.414062 -30 14.8125 -30 Z M 15.0625 -18.359375 C 15.0625 -19.398438 15.320312 -20.289062 15.84375 -21.03125 C 16.363281 -21.769531 17.125 -22.238281 18.125 -22.4375 C 17.800781 -25.519531 16.5 -27.0625 14.21875 -27.0625 C 12.738281 -27.0625 11.28125 -26.179688 9.84375 -24.421875 C 8.40625 -22.660156 7.265625 -19.539062 6.421875 -15.0625 C 6.265625 -14.300781 6.132812 -13.269531 6.03125 -11.96875 C 5.925781 -10.664062 5.875 -9.632812 5.875 -8.875 C 5.875 -7 6.222656 -5.550781 6.921875 -4.53125 C 7.628906 -3.507812 8.601562 -3 9.84375 -3 C 11.476562 -3 12.945312 -3.867188 14.25 -5.609375 C 15.550781 -7.347656 16.582031 -10.019531 17.34375 -13.625 C 15.820312 -14.78125 15.0625 -16.359375 15.0625 -18.359375 Z M 15.0625 -18.359375 "/></g></g></g><g fill="#5e17eb" fill-opacity="0.4"><g transform="translate(282.081017, 237.876692)"><g><path d="M -0.359375 -30 L 2.453125 -30 L 3.0625 -33.234375 C 3.414062 -35.117188 3.515625 -36.453125 3.359375 -37.234375 C 3.203125 -38.015625 3.125 -38.40625 3.125 -38.40625 C 3.125 -38.40625 3.363281 -38.492188 3.84375 -38.671875 C 4.320312 -38.847656 5.117188 -38.9375 6.234375 -38.9375 C 8.554688 -38.9375 9.976562 -38.476562 10.5 -37.5625 C 11.019531 -36.644531 11.082031 -35.125 10.6875 -33 L 10.140625 -30 L 16.078125 -30 C 16.078125 -30 16.144531 -29.890625 16.28125 -29.671875 C 16.425781 -29.453125 16.5 -29.140625 16.5 -28.734375 C 16.5 -28.210938 16.328125 -27.789062 15.984375 -27.46875 C 15.648438 -27.15625 15.140625 -27 14.453125 -27 L 9.59375 -27 L 6.71875 -10.5 C 6.4375 -8.863281 6.585938 -7.570312 7.171875 -6.625 C 7.753906 -5.6875 8.742188 -5.21875 10.140625 -5.21875 C 11.859375 -5.21875 13.328125 -5.773438 14.546875 -6.890625 C 15.765625 -8.015625 16.695312 -9.195312 17.34375 -10.4375 C 17.738281 -10.4375 18.046875 -10.304688 18.265625 -10.046875 C 18.484375 -9.785156 18.535156 -9.394531 18.421875 -8.875 C 18.140625 -7.675781 17.445312 -6.382812 16.34375 -5 C 15.25 -3.625 13.890625 -2.445312 12.265625 -1.46875 C 10.648438 -0.488281 8.878906 0 6.953125 0 C 4.753906 0 2.882812 -0.71875 1.34375 -2.15625 C -0.1875 -3.59375 -0.953125 -5.515625 -0.953125 -7.921875 C -0.953125 -8.597656 -0.910156 -9.457031 -0.828125 -10.5 C -0.753906 -11.539062 -0.578125 -12.820312 -0.296875 -14.34375 L 1.921875 -27 L -1.984375 -27 C -1.984375 -27 -2.050781 -27.109375 -2.1875 -27.328125 C -2.332031 -27.546875 -2.40625 -27.859375 -2.40625 -28.265625 C -2.40625 -28.785156 -2.222656 -29.203125 -1.859375 -29.515625 C -1.492188 -29.835938 -0.992188 -30 -0.359375 -30 Z M -0.359375 -30 "/></g></g></g><g fill="#5e17eb" fill-opacity="0.4"><g transform="translate(299.957534, 237.876692)"><g><path d="M 11.765625 0 C 9.160156 0 6.828125 -0.519531 4.765625 -1.5625 C 2.710938 -2.601562 1.109375 -4.09375 -0.046875 -6.03125 C -1.210938 -7.96875 -1.796875 -10.273438 -1.796875 -12.953125 C -1.796875 -15.597656 -1.335938 -17.976562 -0.421875 -20.09375 C 0.492188 -22.21875 1.722656 -24.007812 3.265625 -25.46875 C 4.804688 -26.925781 6.523438 -28.046875 8.421875 -28.828125 C 10.328125 -29.609375 12.28125 -30 14.28125 -30 C 16.320312 -30 17.972656 -29.6875 19.234375 -29.0625 C 20.492188 -28.445312 21.410156 -27.664062 21.984375 -26.71875 C 22.566406 -25.78125 22.859375 -24.796875 22.859375 -23.765625 C 22.859375 -21.046875 21.367188 -18.773438 18.390625 -16.953125 C 15.410156 -15.128906 11.28125 -13.71875 6 -12.71875 C 6.195312 -10.476562 7.035156 -8.585938 8.515625 -7.046875 C 9.992188 -5.503906 12.015625 -4.734375 14.578125 -4.734375 C 16.734375 -4.734375 18.582031 -5.035156 20.125 -5.640625 C 21.664062 -6.242188 22.945312 -6.984375 23.96875 -7.859375 C 24.988281 -8.742188 25.757812 -9.601562 26.28125 -10.4375 C 27.15625 -10.4375 27.472656 -9.914062 27.234375 -8.875 C 27.117188 -8.238281 26.671875 -7.421875 25.890625 -6.421875 C 25.109375 -5.421875 24.054688 -4.429688 22.734375 -3.453125 C 21.421875 -2.472656 19.832031 -1.648438 17.96875 -0.984375 C 16.113281 -0.328125 14.046875 0 11.765625 0 Z M 14.34375 -27 C 13.21875 -27 12.054688 -26.566406 10.859375 -25.703125 C 9.660156 -24.847656 8.617188 -23.566406 7.734375 -21.859375 C 6.859375 -20.160156 6.300781 -18.054688 6.0625 -15.546875 C 9.738281 -16.421875 12.382812 -17.707031 14 -19.40625 C 15.625 -21.101562 16.4375 -22.9375 16.4375 -24.90625 C 16.4375 -25.539062 16.242188 -26.046875 15.859375 -26.421875 C 15.484375 -26.804688 14.976562 -27 14.34375 -27 Z M 14.34375 -27 "/></g></g></g><g fill="#5e17eb" fill-opacity="0.4"><g transform="translate(327.012258, 237.876692)"><g><path d="M 9.546875 -19.4375 L 14.703125 -16.734375 C 16.898438 -15.617188 18.4375 -14.421875 19.3125 -13.140625 C 20.195312 -11.859375 20.640625 -10.414062 20.640625 -8.8125 C 20.640625 -7.257812 20.175781 -5.8125 19.25 -4.46875 C 18.332031 -3.125 16.941406 -2.039062 15.078125 -1.21875 C 13.222656 -0.40625 10.835938 0 7.921875 0 C 5.359375 0 3.273438 -0.367188 1.671875 -1.109375 C 0.078125 -1.847656 -1.097656 -2.765625 -1.859375 -3.859375 C -2.617188 -4.960938 -3 -6.035156 -3 -7.078125 C -3 -8.234375 -2.597656 -9.125 -1.796875 -9.75 C -0.992188 -10.375 -0.078125 -10.6875 0.953125 -10.6875 C 1.992188 -10.6875 2.734375 -10.546875 3.171875 -10.265625 C 3.617188 -9.984375 3.84375 -9.84375 3.84375 -9.84375 C 3.84375 -9.84375 3.789062 -9.691406 3.6875 -9.390625 C 3.59375 -9.085938 3.546875 -8.65625 3.546875 -8.09375 C 3.546875 -6.613281 3.941406 -5.40625 4.734375 -4.46875 C 5.535156 -3.53125 6.796875 -3.039062 8.515625 -3 C 10.234375 -3 11.503906 -3.378906 12.328125 -4.140625 C 13.148438 -4.898438 13.5625 -5.78125 13.5625 -6.78125 C 13.5625 -7.5 13.335938 -8.164062 12.890625 -8.78125 C 12.453125 -9.40625 11.695312 -10 10.625 -10.5625 L 4.734375 -13.6875 C 3.296875 -14.476562 2.066406 -15.425781 1.046875 -16.53125 C 0.0234375 -17.632812 -0.484375 -19.1875 -0.484375 -21.1875 C -0.484375 -23.625 0.570312 -25.703125 2.6875 -27.421875 C 4.8125 -29.140625 7.992188 -30 12.234375 -30 C 14.710938 -30 16.757812 -29.628906 18.375 -28.890625 C 20 -28.148438 21.203125 -27.226562 21.984375 -26.125 C 22.765625 -25.03125 23.15625 -23.960938 23.15625 -22.921875 C 23.15625 -21.796875 22.753906 -20.910156 21.953125 -20.265625 C 21.160156 -19.628906 20.242188 -19.3125 19.203125 -19.3125 C 18.203125 -19.3125 17.46875 -19.453125 17 -19.734375 C 16.539062 -20.015625 16.3125 -20.15625 16.3125 -20.15625 C 16.3125 -20.15625 16.363281 -20.316406 16.46875 -20.640625 C 16.570312 -20.960938 16.625 -21.382812 16.625 -21.90625 C 16.625 -23.300781 16.191406 -24.5 15.328125 -25.5 C 14.472656 -26.5 13.203125 -27 11.515625 -27 C 9.878906 -27 8.648438 -26.628906 7.828125 -25.890625 C 7.003906 -25.148438 6.59375 -24.257812 6.59375 -23.21875 C 6.59375 -22.34375 6.832031 -21.625 7.3125 -21.0625 C 7.800781 -20.5 8.546875 -19.957031 9.546875 -19.4375 Z M 9.546875 -19.4375 "/></g></g></g><g fill="#5e17eb" fill-opacity="1"><g transform="translate(23.2793, 235.225091)"><g><path d="M 33.78125 -37.859375 L 11.34375 -6.65625 C 12.863281 -6.582031 14.539062 -6.503906 16.375 -6.421875 C 18.21875 -6.335938 20.238281 -6.296875 22.4375 -6.296875 C 24.675781 -6.296875 26.445312 -6.425781 27.75 -6.6875 C 29.050781 -6.945312 29.976562 -7.207031 30.53125 -7.46875 C 31.09375 -7.726562 31.375 -7.859375 31.375 -7.859375 C 31.375 -7.859375 31.484375 -7.65625 31.703125 -7.25 C 31.929688 -6.851562 32.046875 -6.195312 32.046875 -5.28125 C 32.046875 -3.757812 31.503906 -2.5 30.421875 -1.5 C 29.335938 -0.5 27.617188 0 25.265625 0 C 23.378906 0 21.484375 -0.164062 19.578125 -0.5 C 17.679688 -0.84375 15.941406 -1.234375 14.359375 -1.671875 C 12.785156 -2.117188 11.519531 -2.507812 10.5625 -2.84375 C 9.601562 -3.1875 9.125 -3.359375 9.125 -3.359375 C 9.125 -3.359375 8.875 -3.078125 8.375 -2.515625 C 7.875 -1.960938 7.125 -1.40625 6.125 -0.84375 C 5.125 -0.28125 3.882812 0 2.40625 0 C 0.882812 0 -0.191406 -0.367188 -0.828125 -1.109375 C -1.472656 -1.847656 -1.796875 -2.660156 -1.796875 -3.546875 C -1.796875 -4.460938 -1.460938 -5.28125 -0.796875 -6 C -0.140625 -6.71875 0.863281 -7.097656 2.21875 -7.140625 L 24.84375 -38.34375 C 23.363281 -38.414062 21.710938 -38.492188 19.890625 -38.578125 C 18.066406 -38.660156 16.054688 -38.703125 13.859375 -38.703125 C 11.660156 -38.703125 9.898438 -38.570312 8.578125 -38.3125 C 7.253906 -38.050781 6.3125 -37.789062 5.75 -37.53125 C 5.195312 -37.269531 4.921875 -37.140625 4.921875 -37.140625 C 4.921875 -37.140625 4.8125 -37.335938 4.59375 -37.734375 C 4.375 -38.140625 4.265625 -38.800781 4.265625 -39.71875 C 4.265625 -41.238281 4.8125 -42.5 5.90625 -43.5 C 7.007812 -44.5 8.722656 -45 11.046875 -45 C 12.921875 -45 14.804688 -44.828125 16.703125 -44.484375 C 18.609375 -44.148438 20.347656 -43.757812 21.921875 -43.3125 C 23.503906 -42.875 24.773438 -42.484375 25.734375 -42.140625 C 26.703125 -41.804688 27.1875 -41.640625 27.1875 -41.640625 C 27.1875 -41.640625 27.4375 -41.914062 27.9375 -42.46875 C 28.4375 -43.03125 29.1875 -43.59375 30.1875 -44.15625 C 31.1875 -44.71875 32.425781 -45 33.90625 -45 C 35.425781 -45 36.503906 -44.628906 37.140625 -43.890625 C 37.773438 -43.148438 38.09375 -42.335938 38.09375 -41.453125 C 38.09375 -40.535156 37.753906 -39.707031 37.078125 -38.96875 C 36.398438 -38.226562 35.300781 -37.859375 33.78125 -37.859375 Z M 33.78125 -37.859375 "/></g></g></g><g fill="#5e17eb" fill-opacity="1"><g transform="translate(58.372468, 235.225091)"><g><path d="M 11.765625 0 C 9.160156 0 6.828125 -0.519531 4.765625 -1.5625 C 2.710938 -2.601562 1.109375 -4.09375 -0.046875 -6.03125 C -1.210938 -7.96875 -1.796875 -10.273438 -1.796875 -12.953125 C -1.796875 -15.597656 -1.335938 -17.976562 -0.421875 -20.09375 C 0.492188 -22.21875 1.722656 -24.007812 3.265625 -25.46875 C 4.804688 -26.925781 6.523438 -28.046875 8.421875 -28.828125 C 10.328125 -29.609375 12.28125 -30 14.28125 -30 C 16.320312 -30 17.972656 -29.6875 19.234375 -29.0625 C 20.492188 -28.445312 21.410156 -27.664062 21.984375 -26.71875 C 22.566406 -25.78125 22.859375 -24.796875 22.859375 -23.765625 C 22.859375 -21.046875 21.367188 -18.773438 18.390625 -16.953125 C 15.410156 -15.128906 11.28125 -13.71875 6 -12.71875 C 6.195312 -10.476562 7.035156 -8.585938 8.515625 -7.046875 C 9.992188 -5.503906 12.015625 -4.734375 14.578125 -4.734375 C 16.734375 -4.734375 18.582031 -5.035156 20.125 -5.640625 C 21.664062 -6.242188 22.945312 -6.984375 23.96875 -7.859375 C 24.988281 -8.742188 25.757812 -9.601562 26.28125 -10.4375 C 27.15625 -10.4375 27.472656 -9.914062 27.234375 -8.875 C 27.117188 -8.238281 26.671875 -7.421875 25.890625 -6.421875 C 25.109375 -5.421875 24.054688 -4.429688 22.734375 -3.453125 C 21.421875 -2.472656 19.832031 -1.648438 17.96875 -0.984375 C 16.113281 -0.328125 14.046875 0 11.765625 0 Z M 14.34375 -27 C 13.21875 -27 12.054688 -26.566406 10.859375 -25.703125 C 9.660156 -24.847656 8.617188 -23.566406 7.734375 -21.859375 C 6.859375 -20.160156 6.300781 -18.054688 6.0625 -15.546875 C 9.738281 -16.421875 12.382812 -17.707031 14 -19.40625 C 15.625 -21.101562 16.4375 -22.9375 16.4375 -24.90625 C 16.4375 -25.539062 16.242188 -26.046875 15.859375 -26.421875 C 15.484375 -26.804688 14.976562 -27 14.34375 -27 Z M 14.34375 -27 "/></g></g></g><g fill="#5e17eb" fill-opacity="1"><g transform="translate(85.427203, 235.225091)"><g><path d="M 17.765625 -14.34375 L 18.90625 -20.9375 C 19.144531 -22.375 19.132812 -23.363281 18.875 -23.90625 C 18.613281 -24.445312 18.140625 -24.71875 17.453125 -24.71875 C 16.492188 -24.71875 15.460938 -24.207031 14.359375 -23.1875 C 13.265625 -22.164062 12.164062 -20.765625 11.0625 -18.984375 C 9.96875 -17.203125 8.988281 -15.171875 8.125 -12.890625 C 7.269531 -10.617188 6.601562 -8.222656 6.125 -5.703125 C 5.800781 -3.816406 5.707031 -2.484375 5.84375 -1.703125 C 5.988281 -0.929688 6.0625 -0.546875 6.0625 -0.546875 C 6.0625 -0.546875 5.820312 -0.453125 5.34375 -0.265625 C 4.863281 -0.0859375 4.0625 0 2.9375 0 C 0.613281 0 -0.796875 -0.46875 -1.296875 -1.40625 C -1.796875 -2.34375 -1.863281 -3.851562 -1.5 -5.9375 L 1.6875 -24.296875 C 2 -26.179688 2.082031 -27.507812 1.9375 -28.28125 C 1.800781 -29.0625 1.734375 -29.453125 1.734375 -29.453125 C 1.734375 -29.453125 1.972656 -29.539062 2.453125 -29.71875 C 2.941406 -29.90625 3.742188 -30 4.859375 -30 C 7.179688 -30 8.59375 -29.535156 9.09375 -28.609375 C 9.59375 -27.691406 9.660156 -26.175781 9.296875 -24.0625 L 8.8125 -21.296875 C 9.613281 -22.617188 10.625 -23.945312 11.84375 -25.28125 C 13.070312 -26.625 14.4375 -27.742188 15.9375 -28.640625 C 17.4375 -29.546875 18.984375 -30 20.578125 -30 C 22.460938 -30 23.960938 -29.4375 25.078125 -28.3125 C 26.203125 -27.195312 26.765625 -25.695312 26.765625 -23.8125 C 26.765625 -23.175781 26.710938 -22.4375 26.609375 -21.59375 C 26.503906 -20.757812 26.375 -19.878906 26.21875 -18.953125 L 24.78125 -10.5 C 24.5 -9.019531 24.523438 -7.769531 24.859375 -6.75 C 25.203125 -5.726562 25.992188 -5.21875 27.234375 -5.21875 C 28.515625 -5.21875 29.695312 -5.695312 30.78125 -6.65625 C 31.863281 -7.613281 32.785156 -8.875 33.546875 -10.4375 C 33.941406 -10.4375 34.25 -10.316406 34.46875 -10.078125 C 34.6875 -9.835938 34.757812 -9.4375 34.6875 -8.875 C 34.5625 -8.113281 34.207031 -7.234375 33.625 -6.234375 C 33.050781 -5.234375 32.28125 -4.253906 31.3125 -3.296875 C 30.351562 -2.335938 29.265625 -1.546875 28.046875 -0.921875 C 26.828125 -0.304688 25.519531 0 24.125 0 C 21.882812 0 20.113281 -0.6875 18.8125 -2.0625 C 17.507812 -3.445312 16.859375 -5.257812 16.859375 -7.5 C 16.859375 -8.300781 16.96875 -9.390625 17.1875 -10.765625 C 17.40625 -12.148438 17.597656 -13.34375 17.765625 -14.34375 Z M 17.765625 -14.34375 "/></g></g></g><g fill="#5e17eb" fill-opacity="1"><g transform="translate(119.560555, 235.225091)"><g><path d="M -0.65625 -13.203125 L 1.265625 -24.296875 C 1.578125 -26.222656 1.660156 -27.5625 1.515625 -28.3125 C 1.378906 -29.070312 1.3125 -29.453125 1.3125 -29.453125 C 1.3125 -29.453125 1.550781 -29.539062 2.03125 -29.71875 C 2.519531 -29.90625 3.320312 -30 4.4375 -30 C 6.757812 -30 8.171875 -29.535156 8.671875 -28.609375 C 9.171875 -27.691406 9.238281 -26.175781 8.875 -24.0625 L 6.546875 -10.5 C 6.265625 -8.695312 6.351562 -7.363281 6.8125 -6.5 C 7.269531 -5.644531 8.039062 -5.21875 9.125 -5.21875 C 10.164062 -5.21875 11.285156 -5.6875 12.484375 -6.625 C 13.679688 -7.570312 14.660156 -8.84375 15.421875 -10.4375 C 15.816406 -10.4375 16.125 -10.316406 16.34375 -10.078125 C 16.570312 -9.835938 16.644531 -9.4375 16.5625 -8.875 C 16.394531 -8.082031 16.019531 -7.1875 15.4375 -6.1875 C 14.863281 -5.1875 14.097656 -4.210938 13.140625 -3.265625 C 12.179688 -2.328125 11.082031 -1.546875 9.84375 -0.921875 C 8.601562 -0.304688 7.257812 0 5.8125 0 C 3.738281 0 2.050781 -0.648438 0.75 -1.953125 C -0.550781 -3.253906 -1.203125 -5.101562 -1.203125 -7.5 C -1.203125 -8.101562 -1.160156 -8.90625 -1.078125 -9.90625 C -0.992188 -10.90625 -0.851562 -12.003906 -0.65625 -13.203125 Z M 3.359375 -39 C 3.359375 -40.238281 3.773438 -41.265625 4.609375 -42.078125 C 5.453125 -42.898438 6.4375 -43.3125 7.5625 -43.3125 C 8.71875 -43.3125 9.625 -42.953125 10.28125 -42.234375 C 10.945312 -41.515625 11.28125 -40.617188 11.28125 -39.546875 C 11.28125 -38.503906 10.890625 -37.550781 10.109375 -36.6875 C 9.328125 -35.832031 8.273438 -35.40625 6.953125 -35.40625 C 5.878906 -35.40625 5.007812 -35.742188 4.34375 -36.421875 C 3.6875 -37.097656 3.359375 -37.957031 3.359375 -39 Z M 3.359375 -39 "/></g></g></g><g fill="#5e17eb" fill-opacity="1"><g transform="translate(135.577431, 235.225091)"><g><path d="M -0.359375 -30 L 2.453125 -30 L 3.0625 -33.234375 C 3.414062 -35.117188 3.515625 -36.453125 3.359375 -37.234375 C 3.203125 -38.015625 3.125 -38.40625 3.125 -38.40625 C 3.125 -38.40625 3.363281 -38.492188 3.84375 -38.671875 C 4.320312 -38.847656 5.117188 -38.9375 6.234375 -38.9375 C 8.554688 -38.9375 9.976562 -38.476562 10.5 -37.5625 C 11.019531 -36.644531 11.082031 -35.125 10.6875 -33 L 10.140625 -30 L 16.078125 -30 C 16.078125 -30 16.144531 -29.890625 16.28125 -29.671875 C 16.425781 -29.453125 16.5 -29.140625 16.5 -28.734375 C 16.5 -28.210938 16.328125 -27.789062 15.984375 -27.46875 C 15.648438 -27.15625 15.140625 -27 14.453125 -27 L 9.59375 -27 L 6.71875 -10.5 C 6.4375 -8.863281 6.585938 -7.570312 7.171875 -6.625 C 7.753906 -5.6875 8.742188 -5.21875 10.140625 -5.21875 C 11.859375 -5.21875 13.328125 -5.773438 14.546875 -6.890625 C 15.765625 -8.015625 16.695312 -9.195312 17.34375 -10.4375 C 17.738281 -10.4375 18.046875 -10.304688 18.265625 -10.046875 C 18.484375 -9.785156 18.535156 -9.394531 18.421875 -8.875 C 18.140625 -7.675781 17.445312 -6.382812 16.34375 -5 C 15.25 -3.625 13.890625 -2.445312 12.265625 -1.46875 C 10.648438 -0.488281 8.878906 0 6.953125 0 C 4.753906 0 2.882812 -0.71875 1.34375 -2.15625 C -0.1875 -3.59375 -0.953125 -5.515625 -0.953125 -7.921875 C -0.953125 -8.597656 -0.910156 -9.457031 -0.828125 -10.5 C -0.753906 -11.539062 -0.578125 -12.820312 -0.296875 -14.34375 L 1.921875 -27 L -1.984375 -27 C -1.984375 -27 -2.050781 -27.109375 -2.1875 -27.328125 C -2.332031 -27.546875 -2.40625 -27.859375 -2.40625 -28.265625 C -2.40625 -28.785156 -2.222656 -29.203125 -1.859375 -29.515625 C -1.492188 -29.835938 -0.992188 -30 -0.359375 -30 Z M -0.359375 -30 "/></g></g></g><g fill="#5e17eb" fill-opacity="1"><g transform="translate(153.453948, 235.225091)"><g><path d="M 27.234375 -5.21875 C 29.710938 -5.21875 31.816406 -6.957031 33.546875 -10.4375 C 33.941406 -10.4375 34.25 -10.316406 34.46875 -10.078125 C 34.6875 -9.835938 34.757812 -9.4375 34.6875 -8.875 C 34.519531 -8.082031 34.144531 -7.1875 33.5625 -6.1875 C 32.988281 -5.1875 32.226562 -4.210938 31.28125 -3.265625 C 30.34375 -2.328125 29.265625 -1.546875 28.046875 -0.921875 C 26.828125 -0.304688 25.519531 0 24.125 0 C 21.882812 0 20.113281 -0.6875 18.8125 -2.0625 C 17.507812 -3.445312 16.859375 -5.257812 16.859375 -7.5 C 16.859375 -8.300781 16.945312 -9.269531 17.125 -10.40625 C 17.3125 -11.550781 17.523438 -12.863281 17.765625 -14.34375 L 18.90625 -20.9375 C 19.144531 -22.375 19.132812 -23.363281 18.875 -23.90625 C 18.613281 -24.445312 18.140625 -24.71875 17.453125 -24.71875 C 16.492188 -24.71875 15.453125 -24.207031 14.328125 -23.1875 C 13.210938 -22.164062 12.113281 -20.765625 11.03125 -18.984375 C 9.957031 -17.203125 8.976562 -15.171875 8.09375 -12.890625 C 7.21875 -10.617188 6.5625 -8.222656 6.125 -5.703125 C 5.800781 -3.816406 5.707031 -2.484375 5.84375 -1.703125 C 5.988281 -0.929688 6.0625 -0.546875 6.0625 -0.546875 C 6.0625 -0.546875 5.820312 -0.453125 5.34375 -0.265625 C 4.863281 -0.0859375 4.0625 0 2.9375 0 C 0.613281 0 -0.796875 -0.46875 -1.296875 -1.40625 C -1.796875 -2.34375 -1.863281 -3.851562 -1.5 -5.9375 L 5.15625 -44.09375 C 5.476562 -45.976562 5.566406 -47.3125 5.421875 -48.09375 C 5.285156 -48.875 5.21875 -49.265625 5.21875 -49.265625 C 5.21875 -49.265625 5.457031 -49.351562 5.9375 -49.53125 C 6.414062 -49.707031 7.21875 -49.796875 8.34375 -49.796875 C 10.65625 -49.796875 12.0625 -49.335938 12.5625 -48.421875 C 13.0625 -47.503906 13.132812 -45.984375 12.78125 -43.859375 L 8.8125 -21.296875 C 9.613281 -22.617188 10.613281 -23.945312 11.8125 -25.28125 C 13.019531 -26.625 14.375 -27.742188 15.875 -28.640625 C 17.375 -29.546875 18.941406 -30 20.578125 -30 C 22.460938 -30 23.960938 -29.4375 25.078125 -28.3125 C 26.203125 -27.195312 26.765625 -25.695312 26.765625 -23.8125 C 26.765625 -23.175781 26.710938 -22.4375 26.609375 -21.59375 C 26.503906 -20.757812 26.375 -19.878906 26.21875 -18.953125 L 24.78125 -10.5 C 24.5 -8.820312 24.554688 -7.519531 24.953125 -6.59375 C 25.359375 -5.675781 26.117188 -5.21875 27.234375 -5.21875 Z M 27.234375 -5.21875 "/></g></g></g><g fill="#5e17eb" fill-opacity="1"><g transform="translate(187.5873, 235.225091)"><g/></g></g><g fill="#5e17eb" fill-opacity="1"><g transform="translate(200.784729, 235.225091)"><g><path d="M 10.015625 -12.234375 L 14.640625 -38.640625 C 14.835938 -39.679688 14.9375 -40.347656 14.9375 -40.640625 C 14.9375 -40.941406 14.957031 -41.296875 15 -41.703125 L 14.34375 -41.703125 C 11.625 -41.703125 9.582031 -41.050781 8.21875 -39.75 C 6.863281 -38.445312 6.1875 -36.9375 6.1875 -35.21875 C 6.1875 -34.375 6.394531 -33.703125 6.8125 -33.203125 C 7.226562 -32.703125 7.816406 -32.453125 8.578125 -32.453125 C 8.898438 -32.453125 9.148438 -32.484375 9.328125 -32.546875 C 9.503906 -32.609375 9.59375 -32.640625 9.59375 -32.640625 C 9.59375 -32.640625 9.601562 -32.597656 9.625 -32.515625 C 9.644531 -32.441406 9.65625 -32.300781 9.65625 -32.09375 C 9.65625 -31.375 9.273438 -30.632812 8.515625 -29.875 C 7.753906 -29.113281 6.613281 -28.734375 5.09375 -28.734375 C 3.132812 -28.734375 1.59375 -29.285156 0.46875 -30.390625 C -0.644531 -31.492188 -1.203125 -32.941406 -1.203125 -34.734375 C -1.203125 -37.703125 0.101562 -40.15625 2.71875 -42.09375 C 5.34375 -44.03125 9.078125 -45 13.921875 -45 L 19.265625 -45 C 20.859375 -45 22.113281 -44.648438 23.03125 -43.953125 C 23.957031 -43.253906 24.660156 -42.023438 25.140625 -40.265625 L 34.265625 -8.09375 L 37.796875 -28.140625 C 38.554688 -32.296875 38.90625 -35.601562 38.84375 -38.0625 C 38.789062 -40.53125 38.613281 -42.300781 38.3125 -43.375 C 38.007812 -44.457031 37.859375 -45 37.859375 -45 C 37.859375 -45 38.015625 -45.085938 38.328125 -45.265625 C 38.648438 -45.453125 39.191406 -45.546875 39.953125 -45.546875 C 41.117188 -45.546875 41.953125 -45.265625 42.453125 -44.703125 C 42.953125 -44.140625 43.203125 -43.160156 43.203125 -41.765625 C 43.203125 -40.765625 43.09375 -39.515625 42.875 -38.015625 C 42.65625 -36.515625 42.363281 -34.765625 42 -32.765625 L 37.375 -6.359375 C 37.019531 -4.359375 36.859375 -2.914062 36.890625 -2.03125 C 36.929688 -1.15625 36.972656 -0.675781 37.015625 -0.59375 C 37.015625 -0.59375 36.691406 -0.492188 36.046875 -0.296875 C 35.410156 -0.0976562 34.316406 0 32.765625 0 C 31.117188 0 29.863281 -0.390625 29 -1.171875 C 28.144531 -1.953125 27.5 -3.140625 27.0625 -4.734375 L 17.8125 -37.3125 L 14.21875 -16.859375 C 13.5 -12.742188 13.164062 -9.441406 13.21875 -6.953125 C 13.28125 -4.472656 13.453125 -2.691406 13.734375 -1.609375 C 14.015625 -0.535156 14.15625 0 14.15625 0 C 14.15625 0 13.992188 0.0859375 13.671875 0.265625 C 13.359375 0.453125 12.820312 0.546875 12.0625 0.546875 C 10.9375 0.546875 10.113281 0.253906 9.59375 -0.328125 C 9.070312 -0.910156 8.8125 -1.878906 8.8125 -3.234375 C 8.8125 -4.273438 8.921875 -5.535156 9.140625 -7.015625 C 9.367188 -8.492188 9.660156 -10.234375 10.015625 -12.234375 Z M 10.015625 -12.234375 "/></g></g></g><g fill="#5e17eb" fill-opacity="1"><g transform="translate(247.575612, 235.225091)"><g><path d="M 14.8125 -30 C 18.332031 -30 21.050781 -28.945312 22.96875 -26.84375 C 24.894531 -24.75 25.859375 -21.984375 25.859375 -18.546875 C 25.859375 -17.898438 25.828125 -17.253906 25.765625 -16.609375 C 25.710938 -15.972656 25.644531 -15.359375 25.5625 -14.765625 C 27.082031 -15.003906 28.378906 -15.503906 29.453125 -16.265625 C 30.535156 -17.023438 31.363281 -17.742188 31.9375 -18.421875 C 32.519531 -19.097656 32.8125 -19.4375 32.8125 -19.4375 C 33.65625 -19.4375 34.019531 -18.9375 33.90625 -17.9375 C 33.78125 -17.257812 33.304688 -16.488281 32.484375 -15.625 C 31.671875 -14.769531 30.613281 -14 29.3125 -13.3125 C 28.007812 -12.632812 26.554688 -12.195312 24.953125 -12 C 23.953125 -8.4375 22.101562 -5.546875 19.40625 -3.328125 C 16.707031 -1.109375 13.316406 0 9.234375 0 C 6.078125 0 3.445312 -0.976562 1.34375 -2.9375 C -0.75 -4.894531 -1.796875 -7.734375 -1.796875 -11.453125 C -1.796875 -15.097656 -1.128906 -18.3125 0.203125 -21.09375 C 1.546875 -23.875 3.46875 -26.050781 5.96875 -27.625 C 8.46875 -29.207031 11.414062 -30 14.8125 -30 Z M 15.0625 -18.359375 C 15.0625 -19.398438 15.320312 -20.289062 15.84375 -21.03125 C 16.363281 -21.769531 17.125 -22.238281 18.125 -22.4375 C 17.800781 -25.519531 16.5 -27.0625 14.21875 -27.0625 C 12.738281 -27.0625 11.28125 -26.179688 9.84375 -24.421875 C 8.40625 -22.660156 7.265625 -19.539062 6.421875 -15.0625 C 6.265625 -14.300781 6.132812 -13.269531 6.03125 -11.96875 C 5.925781 -10.664062 5.875 -9.632812 5.875 -8.875 C 5.875 -7 6.222656 -5.550781 6.921875 -4.53125 C 7.628906 -3.507812 8.601562 -3 9.84375 -3 C 11.476562 -3 12.945312 -3.867188 14.25 -5.609375 C 15.550781 -7.347656 16.582031 -10.019531 17.34375 -13.625 C 15.820312 -14.78125 15.0625 -16.359375 15.0625 -18.359375 Z M 15.0625 -18.359375 "/></g></g></g><g fill="#5e17eb" fill-opacity="1"><g transform="translate(279.429415, 235.225091)"><g><path d="M -0.359375 -30 L 2.453125 -30 L 3.0625 -33.234375 C 3.414062 -35.117188 3.515625 -36.453125 3.359375 -37.234375 C 3.203125 -38.015625 3.125 -38.40625 3.125 -38.40625 C 3.125 -38.40625 3.363281 -38.492188 3.84375 -38.671875 C 4.320312 -38.847656 5.117188 -38.9375 6.234375 -38.9375 C 8.554688 -38.9375 9.976562 -38.476562 10.5 -37.5625 C 11.019531 -36.644531 11.082031 -35.125 10.6875 -33 L 10.140625 -30 L 16.078125 -30 C 16.078125 -30 16.144531 -29.890625 16.28125 -29.671875 C 16.425781 -29.453125 16.5 -29.140625 16.5 -28.734375 C 16.5 -28.210938 16.328125 -27.789062 15.984375 -27.46875 C 15.648438 -27.15625 15.140625 -27 14.453125 -27 L 9.59375 -27 L 6.71875 -10.5 C 6.4375 -8.863281 6.585938 -7.570312 7.171875 -6.625 C 7.753906 -5.6875 8.742188 -5.21875 10.140625 -5.21875 C 11.859375 -5.21875 13.328125 -5.773438 14.546875 -6.890625 C 15.765625 -8.015625 16.695312 -9.195312 17.34375 -10.4375 C 17.738281 -10.4375 18.046875 -10.304688 18.265625 -10.046875 C 18.484375 -9.785156 18.535156 -9.394531 18.421875 -8.875 C 18.140625 -7.675781 17.445312 -6.382812 16.34375 -5 C 15.25 -3.625 13.890625 -2.445312 12.265625 -1.46875 C 10.648438 -0.488281 8.878906 0 6.953125 0 C 4.753906 0 2.882812 -0.71875 1.34375 -2.15625 C -0.1875 -3.59375 -0.953125 -5.515625 -0.953125 -7.921875 C -0.953125 -8.597656 -0.910156 -9.457031 -0.828125 -10.5 C -0.753906 -11.539062 -0.578125 -12.820312 -0.296875 -14.34375 L 1.921875 -27 L -1.984375 -27 C -1.984375 -27 -2.050781 -27.109375 -2.1875 -27.328125 C -2.332031 -27.546875 -2.40625 -27.859375 -2.40625 -28.265625 C -2.40625 -28.785156 -2.222656 -29.203125 -1.859375 -29.515625 C -1.492188 -29.835938 -0.992188 -30 -0.359375 -30 Z M -0.359375 -30 "/></g></g></g><g fill="#5e17eb" fill-opacity="1"><g transform="translate(297.305933, 235.225091)"><g><path d="M 11.765625 0 C 9.160156 0 6.828125 -0.519531 4.765625 -1.5625 C 2.710938 -2.601562 1.109375 -4.09375 -0.046875 -6.03125 C -1.210938 -7.96875 -1.796875 -10.273438 -1.796875 -12.953125 C -1.796875 -15.597656 -1.335938 -17.976562 -0.421875 -20.09375 C 0.492188 -22.21875 1.722656 -24.007812 3.265625 -25.46875 C 4.804688 -26.925781 6.523438 -28.046875 8.421875 -28.828125 C 10.328125 -29.609375 12.28125 -30 14.28125 -30 C 16.320312 -30 17.972656 -29.6875 19.234375 -29.0625 C 20.492188 -28.445312 21.410156 -27.664062 21.984375 -26.71875 C 22.566406 -25.78125 22.859375 -24.796875 22.859375 -23.765625 C 22.859375 -21.046875 21.367188 -18.773438 18.390625 -16.953125 C 15.410156 -15.128906 11.28125 -13.71875 6 -12.71875 C 6.195312 -10.476562 7.035156 -8.585938 8.515625 -7.046875 C 9.992188 -5.503906 12.015625 -4.734375 14.578125 -4.734375 C 16.734375 -4.734375 18.582031 -5.035156 20.125 -5.640625 C 21.664062 -6.242188 22.945312 -6.984375 23.96875 -7.859375 C 24.988281 -8.742188 25.757812 -9.601562 26.28125 -10.4375 C 27.15625 -10.4375 27.472656 -9.914062 27.234375 -8.875 C 27.117188 -8.238281 26.671875 -7.421875 25.890625 -6.421875 C 25.109375 -5.421875 24.054688 -4.429688 22.734375 -3.453125 C 21.421875 -2.472656 19.832031 -1.648438 17.96875 -0.984375 C 16.113281 -0.328125 14.046875 0 11.765625 0 Z M 14.34375 -27 C 13.21875 -27 12.054688 -26.566406 10.859375 -25.703125 C 9.660156 -24.847656 8.617188 -23.566406 7.734375 -21.859375 C 6.859375 -20.160156 6.300781 -18.054688 6.0625 -15.546875 C 9.738281 -16.421875 12.382812 -17.707031 14 -19.40625 C 15.625 -21.101562 16.4375 -22.9375 16.4375 -24.90625 C 16.4375 -25.539062 16.242188 -26.046875 15.859375 -26.421875 C 15.484375 -26.804688 14.976562 -27 14.34375 -27 Z M 14.34375 -27 "/></g></g></g><g fill="#5e17eb" fill-opacity="1"><g transform="translate(324.360657, 235.225091)"><g><path d="M 9.546875 -19.4375 L 14.703125 -16.734375 C 16.898438 -15.617188 18.4375 -14.421875 19.3125 -13.140625 C 20.195312 -11.859375 20.640625 -10.414062 20.640625 -8.8125 C 20.640625 -7.257812 20.175781 -5.8125 19.25 -4.46875 C 18.332031 -3.125 16.941406 -2.039062 15.078125 -1.21875 C 13.222656 -0.40625 10.835938 0 7.921875 0 C 5.359375 0 3.273438 -0.367188 1.671875 -1.109375 C 0.078125 -1.847656 -1.097656 -2.765625 -1.859375 -3.859375 C -2.617188 -4.960938 -3 -6.035156 -3 -7.078125 C -3 -8.234375 -2.597656 -9.125 -1.796875 -9.75 C -0.992188 -10.375 -0.078125 -10.6875 0.953125 -10.6875 C 1.992188 -10.6875 2.734375 -10.546875 3.171875 -10.265625 C 3.617188 -9.984375 3.84375 -9.84375 3.84375 -9.84375 C 3.84375 -9.84375 3.789062 -9.691406 3.6875 -9.390625 C 3.59375 -9.085938 3.546875 -8.65625 3.546875 -8.09375 C 3.546875 -6.613281 3.941406 -5.40625 4.734375 -4.46875 C 5.535156 -3.53125 6.796875 -3.039062 8.515625 -3 C 10.234375 -3 11.503906 -3.378906 12.328125 -4.140625 C 13.148438 -4.898438 13.5625 -5.78125 13.5625 -6.78125 C 13.5625 -7.5 13.335938 -8.164062 12.890625 -8.78125 C 12.453125 -9.40625 11.695312 -10 10.625 -10.5625 L 4.734375 -13.6875 C 3.296875 -14.476562 2.066406 -15.425781 1.046875 -16.53125 C 0.0234375 -17.632812 -0.484375 -19.1875 -0.484375 -21.1875 C -0.484375 -23.625 0.570312 -25.703125 2.6875 -27.421875 C 4.8125 -29.140625 7.992188 -30 12.234375 -30 C 14.710938 -30 16.757812 -29.628906 18.375 -28.890625 C 20 -28.148438 21.203125 -27.226562 21.984375 -26.125 C 22.765625 -25.03125 23.15625 -23.960938 23.15625 -22.921875 C 23.15625 -21.796875 22.753906 -20.910156 21.953125 -20.265625 C 21.160156 -19.628906 20.242188 -19.3125 19.203125 -19.3125 C 18.203125 -19.3125 17.46875 -19.453125 17 -19.734375 C 16.539062 -20.015625 16.3125 -20.15625 16.3125 -20.15625 C 16.3125 -20.15625 16.363281 -20.316406 16.46875 -20.640625 C 16.570312 -20.960938 16.625 -21.382812 16.625 -21.90625 C 16.625 -23.300781 16.191406 -24.5 15.328125 -25.5 C 14.472656 -26.5 13.203125 -27 11.515625 -27 C 9.878906 -27 8.648438 -26.628906 7.828125 -25.890625 C 7.003906 -25.148438 6.59375 -24.257812 6.59375 -23.21875 C 6.59375 -22.34375 6.832031 -21.625 7.3125 -21.0625 C 7.800781 -20.5 8.546875 -19.957031 9.546875 -19.4375 Z M 9.546875 -19.4375 "/></g></g></g></svg>